<?xml version="1.0" standalone="no"?>
<!DOCTYPE svg PUBLIC "-//W3C//DTD SVG 20010904//EN"
 "http://www.w3.org/TR/2001/REC-SVG-20010904/DTD/svg10.dtd">
<svg version="1.0" xmlns="http://www.w3.org/2000/svg"
 width="700.000000pt" height="700.000000pt" viewBox="0 0 700.000000 700.000000"
 preserveAspectRatio="xMidYMid meet">
<metadata>
Created by potrace 1.11, written by Peter Selinger 2001-2013
</metadata>
<g transform="translate(0.000000,700.000000) scale(0.100000,-0.100000)"
fill="#000000" stroke="none">
<path d="M0 3500 l0 -3500 3500 0 3500 0 0 3500 0 3500 -3500 0 -3500 0 0
-3500z m877 2313 c83 -53 111 -153 67 -241 -35 -70 -81 -97 -164 -97 -58 0
-72 4 -103 28 -46 35 -63 61 -75 112 -11 52 6 126 39 162 58 62 168 80 236 36z
m1066 -499 c78 -20 136 -54 193 -113 l45 -46 60 58 c89 87 177 118 318 112
104 -4 117 -6 195 -43 104 -49 179 -147 206 -268 9 -40 15 -434 11 -739 l-1
-51 -142 1 -143 0 -1 310 c0 171 -4 328 -8 350 -23 119 -103 178 -226 169 -62
-5 -103 -25 -145 -70 -54 -57 -59 -94 -59 -443 l-1 -316 -135 -1 c-74 0 -139
1 -145 3 -6 2 -10 120 -11 326 0 343 -4 372 -50 434 -36 48 -87 68 -166 67
-113 -2 -194 -69 -214 -179 -4 -22 -8 -177 -8 -345 l-1 -305 -142 0 c-91 0
-143 3 -144 10 -5 49 -3 1040 2 1053 6 15 22 17 143 14 l136 -3 0 -58 0 -58
45 43 c52 50 109 82 168 94 69 13 155 11 220 -6z m2039 1 c89 -23 161 -69 214
-137 l20 -26 53 52 c85 87 201 130 333 125 160 -6 295 -85 359 -210 45 -89 48
-121 49 -519 l0 -376 -142 1 -143 0 -1 309 c-1 170 -5 327 -8 350 -16 96 -89
164 -185 171 -116 8 -202 -51 -237 -165 -4 -14 -9 -167 -10 -340 -1 -173 -2
-317 -3 -320 -1 -5 -264 -6 -281 -1 -3 0 -6 149 -7 330 l0 330 -28 56 c-34 70
-84 105 -159 110 -107 8 -207 -54 -236 -147 -10 -32 -14 -125 -14 -363 l-1
-320 -143 0 c-120 0 -142 2 -143 15 -1 8 -2 250 -3 537 l-1 523 142 0 142 0
-2 -59 -2 -59 46 43 c52 48 111 82 165 93 70 14 162 13 226 -3z m1983 -2 c205
-46 375 -211 421 -409 15 -64 21 -193 10 -239 -24 -110 -60 -191 -116 -259
-74 -90 -195 -167 -300 -191 -172 -41 -370 -8 -502 83 -147 101 -229 257 -234
447 -6 173 44 303 158 417 143 141 356 198 563 151z m-5039 -551 l-1 -537
-135 -1 c-74 0 -139 3 -145 7 -6 5 -9 191 -8 531 1 287 2 526 2 530 1 7 255
16 277 10 8 -2 11 -151 10 -540z m6039 -2997 l0 -1730 -3466 0 -3465 -1 1
1731 c1 951 3 1731 4 1733 0 1 1559 1 3464 0 l3462 -3 0 -1730z"/>
<path d="M5715 5039 c-190 -71 -241 -339 -93 -489 99 -100 266 -109 378 -20
128 101 141 322 26 441 -77 80 -205 109 -311 68z"/>
<path d="M4400 2043 l0 -743 145 0 145 0 0 740 c0 585 -3 740 -12 741 -7 1
-73 2 -145 3 l-133 1 0 -742z"/>
<path d="M5039 2672 c0 -15 0 -87 -1 -159 0 -117 -2 -133 -16 -134 -10 -1 -56
-1 -104 -1 l-88 0 0 -129 0 -129 33 -1 c17 0 64 0 103 0 l71 -1 1 -238 c1
-222 3 -261 18 -334 19 -92 92 -187 175 -228 65 -33 91 -39 194 -43 123 -4
230 23 332 85 l42 25 -47 100 c-63 134 -59 129 -85 112 -37 -23 -103 -46 -152
-53 -66 -9 -127 16 -157 64 -22 35 -23 47 -26 274 l-3 237 173 0 c95 0 183 0
196 0 22 1 23 2 20 129 l-3 127 -190 1 -190 0 -3 160 -2 161 -145 1 -145 0 -1
-26z"/>
<path d="M3625 2402 c-16 -2 -55 -10 -85 -18 -266 -75 -416 -333 -376 -648 29
-227 194 -404 421 -451 78 -16 236 -13 307 5 102 27 223 86 261 128 19 21 21
19 -119 171 l-32 34 -33 -25 c-72 -53 -137 -72 -239 -72 -78 0 -102 3 -135 21
-60 32 -109 91 -133 161 l-11 32 77 0 c42 1 213 1 379 1 205 -1 304 3 309 10
12 20 5 175 -11 244 -46 199 -192 355 -372 396 -50 11 -156 17 -208 11z m175
-270 c40 -17 80 -61 106 -116 13 -28 24 -57 24 -63 0 -10 -54 -13 -235 -13
-267 0 -253 -6 -209 86 30 65 95 115 158 122 23 2 42 5 44 6 5 5 87 -11 112
-22z"/>
<path d="M1210 2351 c4 -14 54 -161 110 -326 55 -165 134 -396 173 -512 l72
-213 165 0 165 0 94 288 c51 158 103 317 114 354 12 37 25 68 29 68 4 0 122
-345 143 -420 1 -3 4 -12 8 -20 3 -8 24 -72 47 -143 l42 -127 166 2 166 3 32
95 c166 487 324 961 324 969 0 5 -62 8 -149 7 l-149 -1 -67 -220 c-37 -121
-88 -288 -114 -372 -25 -84 -49 -149 -52 -145 -4 4 -39 108 -78 232 -40 124
-93 288 -119 366 l-46 141 -153 0 -152 -1 -26 -80 c-14 -45 -58 -180 -96 -301
-39 -121 -80 -249 -91 -285 -28 -89 -30 -91 -44 -40 -6 25 -37 128 -69 230
-31 102 -75 246 -97 320 -22 74 -45 140 -50 145 -5 6 -72 10 -157 11 l-149 0
8 -25z"/>
</g>
</svg>
