<?xml version="1.0" encoding="utf-8"?>
<!-- Generator: Adobe Illustrator 16.0.0, SVG Export Plug-In . SVG Version: 6.00 Build 0)  -->
<!DOCTYPE svg PUBLIC "-//W3C//DTD SVG 1.1//EN" "http://www.w3.org/Graphics/SVG/1.1/DTD/svg11.dtd">
<svg version="1.1" id="Layer_1" xmlns="http://www.w3.org/2000/svg" xmlns:xlink="http://www.w3.org/1999/xlink" x="0px" y="0px"
	 width="66.389px" height="59.75px" viewBox="0 0 66.389 59.75" enable-background="new 0 0 66.389 59.75" xml:space="preserve">
<path fill="#D8D9D8" d="M58.525,54.695c0,1.946-11.955,3.525-26.704,3.525S5.115,56.642,5.115,54.695
	c0-1.947,11.957-3.525,26.706-3.525S58.525,52.748,58.525,54.695z"/>
<path fill="#FFFFFF" d="M58.525,7.213l6.101,1.277c0.407,0.084,0.649,0.567,0.543,1.077l-8.018,38.352
	c-0.106,0.511-0.522,0.856-0.93,0.771l-27.109-5.675c-0.405-0.085-0.651-0.568-0.543-1.077l8.015-38.353
	c0.109-0.509,0.525-0.855,0.931-0.77L58.525,7.213"/>
<path fill="#CDCCCC" d="M58.744,18.071l-20.066-3.995l0.432-2.23l20.09,3.999L58.744,18.071z M54.868,37.1l-19.897-3.845
	l-0.432,2.231l19.877,3.838L54.868,37.1z M55.595,33.533l-19.934-3.852l-0.43,2.229l19.91,3.849L55.595,33.533z M56.312,30.015
	l-19.958-3.906l-0.432,2.231l19.936,3.901L56.312,30.015z M57.045,26.417L37.041,22.55l-0.432,2.229l19.983,3.862L57.045,26.417z
	 M57.749,22.964L37.731,18.98L37.3,21.21l19.994,3.98L57.749,22.964z M58.476,19.397l-20.054-3.99l-0.43,2.229l20.028,3.987
	L58.476,19.397z"/>
<path fill="none" stroke="#333333" stroke-miterlimit="10" d="M35.922,44.44l-6.81-1.426c-0.405-0.085-0.651-0.568-0.543-1.077
	l8.015-38.353c0.109-0.509,0.525-0.855,0.931-0.77l21.011,4.398"/>
<line fill="none" stroke="#333333" stroke-miterlimit="10" x1="50.444" y1="47.479" x2="39.949" y2="45.283"/>
<path fill="none" stroke="#333333" stroke-miterlimit="10" d="M58.525,7.213l6.101,1.277c0.407,0.084,0.649,0.567,0.543,1.077
	l-8.018,38.352c-0.106,0.511-0.522,0.856-0.93,0.771l-5.951-1.246"/>
<path fill="#FFFFFF" d="M41.262,45.558"/>
<path fill="#FFFFFF" d="M37.008,44.668"/>
<path fill="#FFFFFF" d="M41.719,45.653"/>
<path fill="#FFFFFF" d="M36.474,44.556"/>
<path fill="#FFFFFF" d="M39.096,2.071l6.232-0.046c0.416-0.005,0.756,0.416,0.76,0.937l0.309,39.18
	c0.004,0.521-0.328,0.947-0.745,0.951l-27.697,0.209c-0.414,0.003-0.756-0.418-0.76-0.938L16.887,3.184
	c-0.003-0.523,0.33-0.947,0.744-0.951L39.096,2.071"/>
<g>
	<g>
		<g>
			<g>
				<path fill="#CDCCCC" d="M41.719,13.208l-20.196,0.09l-0.02-2.272l20.216-0.09V13.208z M41.719,32.63l-20.001,0.204l0.022,2.271
					l19.979-0.203V32.63z M41.719,28.992l-20.037,0.202l0.022,2.271l20.015-0.202V28.992z M41.719,25.398l-20.073,0.156l0.022,2.271
					l20.051-0.153V25.398z M41.719,21.726l-20.109,0.202l0.022,2.271l20.087-0.203V21.726z M41.719,18.202l-20.146,0.091
					l0.025,2.271l20.121-0.09V18.202z M41.719,14.563l-20.18,0.092l0.022,2.27l20.157-0.089V14.563z"/>
			</g>
		</g>
	</g>
</g>
<path fill="none" stroke="#333333" stroke-miterlimit="10" d="M36.822,43.157l-18.868,0.144c-0.414,0.003-0.756-0.418-0.76-0.938
	L16.887,3.184c-0.003-0.523,0.33-0.947,0.744-0.951l21.465-0.163"/>
<path fill="none" stroke="#333333" stroke-miterlimit="10" d="M39.096,2.071l6.232-0.046c0.416-0.005,0.756,0.416,0.76,0.937
	l0.309,39.18c0.004,0.521-0.328,0.947-0.745,0.951l-6.082,0.045"/>
<g>
	<path fill="#FFFFFF" d="M23.881,7.056l6.144-1.055c0.407-0.071,0.813,0.29,0.9,0.802l6.64,38.615
		c0.086,0.514-0.172,0.988-0.582,1.058L9.684,51.161c-0.409,0.069-0.814-0.29-0.902-0.804L2.144,11.744
		c-0.088-0.514,0.172-0.987,0.582-1.058l18.302-3.142"/>
	<path fill="#333333" d="M9.583,51.749c-0.65,0-1.243-0.542-1.374-1.293L1.572,11.842c-0.064-0.377-0.004-0.758,0.168-1.072
		c0.194-0.352,0.517-0.591,0.888-0.654l18.301-3.142l0.197,1.142L2.824,11.257c-0.114,0.155-0.129,0.271-0.109,0.389l6.638,38.612
		c0.039,0.239,0.185,0.349,0.233,0.331l27.298-4.686c0.045-0.007,0.148-0.157,0.109-0.391l-6.64-38.612
		c-0.025-0.156-0.104-0.26-0.168-0.305l-6.206,1.03l-0.197-1.142l6.144-1.054c0.319-0.057,0.647,0.022,0.926,0.219
		c0.335,0.235,0.569,0.62,0.645,1.056l6.64,38.614c0.139,0.833-0.335,1.605-1.057,1.728L9.782,51.732
		C9.716,51.743,9.648,51.749,9.583,51.749z"/>
</g>
<path fill="#FCB216" d="M17.14,19.441l-8.786,1.535l-0.388-2.238l8.787-1.536L17.14,19.441z M25.434,32.736l-14.587,2.553
	l-0.389-2.238l14.584-2.555L25.434,32.736z M30.765,35.502l-19.296,3.373l-0.389-2.238l19.295-3.373L30.765,35.502z M29.128,26.106
	L9.835,29.479l0.39,2.237l19.293-3.371L29.128,26.106z M31.389,39.086L12.094,42.46l-0.39-2.237l19.293-3.373L31.389,39.086z
	 M17.993,24.362l-8.782,1.535l0.392,2.237L18.38,26.6L17.993,24.362z M17.373,20.775l-8.784,1.536l0.389,2.237l8.782-1.535
	L17.373,20.775z M20.656,26.17c-0.679-0.278-1.204-0.875-1.337-1.632l-0.192-1.102c-0.211-1.188,0.615-2.331,1.832-2.541
	c0,0,1.286,0.988,2.51,0.727c1.222-0.263,2.319-1.565,2.319-1.565c1.218-0.211,2.383,0.584,2.589,1.77l0.194,1.104
	c0.134,0.757-0.155,1.495-0.701,1.984L20.656,26.17 M25.295,18.006c0.22,1.242-0.636,2.426-1.91,2.647
	c-1.271,0.22-2.478-0.604-2.697-1.847c-0.217-1.238,0.639-2.422,1.912-2.643C23.869,15.942,25.08,16.769,25.295,18.006"/>
</svg>
