<?xml version="1.0" encoding="utf-8"?>
<!-- Generator: Adobe Illustrator 23.0.3, SVG Export Plug-In . SVG Version: 6.00 Build 0)  -->
<svg version="1.1" id="Layer_1" xmlns="http://www.w3.org/2000/svg" xmlns:xlink="http://www.w3.org/1999/xlink" x="0px" y="0px"
	 viewBox="0 0 45 45" enable-background="new 0 0 45 45" xml:space="preserve">
<g>
	<path fill="#FFFFFF" d="M43.3,45H1.7C0.76,45,0,44.24,0,43.31V1.7C0,0.76,0.76,0,1.7,0H43.3C44.24,0,45,0.76,45,1.7v41.61
		C45,44.24,44.24,45,43.3,45"/>
	<path fill="#FCB216" d="M43.8,0H1.2C0.54,0,0,0.54,0,1.2v42.6C0,44.46,0.54,45,1.2,45h42.6c0.66,0,1.2-0.54,1.2-1.2V1.2
		C45,0.54,44.46,0,43.8,0"/>
	<path fill="#FFFFFF" d="M27.78,10.05c-3.27,1.42-8.3,8.3-8.3,8.3h-8.3L7.8,25.38l0.97,1.44l4.47-2.23l6.23,6.23l-1.81,5.42
		l1.81,0.81l6.23-4.15v-6.23c0,0,8.91-8.88,9.23-10.6c0.33-1.72,1.15-8.09,1.15-8.09S31.04,8.63,27.78,10.05z M30.11,16.13
		c-1.02,0-1.84-0.83-1.84-1.84s0.83-1.84,1.84-1.84c1.02,0,1.84,0.83,1.84,1.84S31.12,16.13,30.11,16.13z"/>
</g>
</svg>
