<?xml version="1.0" encoding="utf-8"?>
<!-- Generator: Adobe Illustrator 23.0.3, SVG Export Plug-In . SVG Version: 6.00 Build 0)  -->
<svg version="1.1" id="Layer_1" xmlns="http://www.w3.org/2000/svg" xmlns:xlink="http://www.w3.org/1999/xlink" x="0px" y="0px"
	 viewBox="0 0 45 45" enable-background="new 0 0 45 45" xml:space="preserve">
<g>
	<path fill="#FFFFFF" d="M43.3,45H1.7C0.76,45,0,44.24,0,43.31V1.7C0,0.76,0.76,0,1.7,0H43.3C44.24,0,45,0.76,45,1.7v41.61
		C45,44.24,44.24,45,43.3,45"/>
	<path fill="#FCB216" d="M43.8,0H1.2C0.54,0,0,0.54,0,1.2v42.6C0,44.46,0.54,45,1.2,45h42.6c0.66,0,1.2-0.54,1.2-1.2V1.2
		C45,0.54,44.46,0,43.8,0"/>
	<path fill="#FFFFFF" d="M28.31,18.55c0,3.1-2.58,5.61-5.77,5.61c-3.19,0-5.77-2.51-5.77-5.61c0-3.1,2.58-5.61,5.77-5.61
		C25.72,12.94,28.31,15.46,28.31,18.55"/>
	<path fill="#FFFFFF" d="M35.54,12.37c0,1.94-1.62,3.52-3.62,3.52c-2,0-3.62-1.57-3.62-3.52s1.62-3.52,3.62-3.52
		C33.92,8.85,35.54,10.42,35.54,12.37"/>
	<path fill="#FFFFFF" d="M16.77,12.37c0,1.94-1.62,3.52-3.62,3.52c-2,0-3.62-1.57-3.62-3.52s1.62-3.52,3.62-3.52
		C15.15,8.85,16.77,10.42,16.77,12.37"/>
	<path fill="#FFFFFF" d="M13.54,36.38h18.08c1.53-0.96,2.55-2.63,2.55-4.52v-2.76c0-2.96-2.5-5.38-5.54-5.38c0,0-3.22,2.7-6.3,2.82
		c-3.09,0.12-5.78-2.82-5.78-2.82c-3.05,0-5.54,2.42-5.54,5.38v2.76C11,33.76,12.02,35.42,13.54,36.38"/>
	<path fill="#FFFFFF" d="M13.86,21.99v-4.78c-0.36,0.11-0.74,0.2-1.12,0.21c-1.79,0.07-3.35-1.55-3.35-1.55
		c-1.76,0-3.21,1.33-3.21,2.95v1.51c0,1.04,0.59,1.95,1.47,2.48h4.2C12.18,22.4,13.32,22.11,13.86,21.99"/>
	<path fill="#FFFFFF" d="M35.54,15.88c0,0-1.57,1.61-3.35,1.55c-0.37-0.01-0.75-0.1-1.11-0.21v4.73c0.53,0.14,1.69,0.44,1.99,0.87
		h4.21c0.88-0.53,1.48-1.44,1.48-2.48v-1.51C38.75,17.21,37.31,15.88,35.54,15.88"/>
</g>
</svg>
