<svg id="Ebene_1" data-name="Ebene 1" xmlns="http://www.w3.org/2000/svg" viewBox="0 0 473.65 492"><defs><style>.cls-1{fill:#000000;}</style></defs><title>spinner</title><path class="cls-1" d="M86.18,259.19q0,15.31-10.72,25.52a38.21,38.21,0,0,1-26,10.71,31.47,31.47,0,0,1-25.52-10.71Q13.69,273.49,13.2,259.19t10.72-26Q35.14,221.43,49.44,223a52.53,52.53,0,0,1,26,10.21Q87.21,241.84,86.18,259.19Zm67.37-141.88a45.31,45.31,0,0,1-45.42,45.42,45.31,45.31,0,0,1-45.42-45.42,45.31,45.31,0,0,1,45.42-45.43,45.31,45.31,0,0,1,45.42,45.43Zm-8.68,283.76a34.85,34.85,0,0,1-10.71,25.52,36.35,36.35,0,0,1-51.55,0,36.5,36.5,0,0,1,25.52-62.27q14.79,0,26,10.72A33,33,0,0,1,144.87,401.07ZM304.62,58.61q0,23-15.82,38.79T250,113.22q-23,0-38.79-15.82T195.4,58.61q0-23,15.82-38.79T250,4q23,0,38.79,15.82T304.62,58.61ZM286.25,459.76A35.74,35.74,0,0,1,276,485.28Q265.83,496,250,496t-25.52-10.72a41.12,41.12,0,0,1-10.71-25.52q-1-14.81,10.71-26T250,423q13.78.51,26,10.71T286.25,459.76ZM455.69,117.31q0,26.53-18.88,44.91a63.44,63.44,0,0,1-45.17,18.63q-26.29.26-44.66-18.63t-18.63-44.91q-.25-26,18.63-44.92T391.9,53.51q26,0,44.91,18.88T455.69,117.31ZM428.13,401.07a36.44,36.44,0,0,1-62.26,25.52,33.06,33.06,0,0,1-10.21-25.52,40.83,40.83,0,0,1,10.21-26q9.69-11.22,26-10.72T417.41,375Q426.61,385.26,428.13,401.07Zm58.7-141.88q0,15.31-10.72,25.52a37.67,37.67,0,0,1-25.52,10.71q-14.8.52-26-10.71t-10.72-25.52q.51-14.3,10.72-26t26-10.21q15.81,1.53,25.52,10.21T486.83,259.19Z" transform="translate(-13.17 -4)"/></svg>