<?xml version="1.0" encoding="utf-8"?>
<!-- Generator: Adobe Illustrator 23.0.3, SVG Export Plug-In . SVG Version: 6.00 Build 0)  -->
<svg version="1.1" id="Layer_1" xmlns="http://www.w3.org/2000/svg" xmlns:xlink="http://www.w3.org/1999/xlink" x="0px" y="0px"
	 viewBox="0 0 66.39 59.75" style="enable-background:new 0 0 66.39 59.75;" xml:space="preserve">
<style type="text/css">
	.st0{fill:#D8D8D8;}
	.st1{fill:#333333;}
	.st2{fill:#FFB200;}
</style>
<g>
	<path class="st0" d="M58.45,54.69c0,1.94-11.94,3.52-26.67,3.52S5.12,56.63,5.12,54.69c0-1.95,11.94-3.52,26.67-3.52
		S58.45,52.76,58.45,54.69z"/>
	<path class="st1" d="M37.95,23.58l-8.87-5.24c0.07-0.28,0.12-0.6,0.12-0.89c0-2.8-2.27-5.07-5.07-5.07s-5.07,2.27-5.07,5.07
		c0,1.46,0.63,2.77,1.62,3.7L9.12,34.61c-0.2-0.02-0.4-0.07-0.61-0.07c-2.8,0-5.07,2.27-5.07,5.07s2.27,5.07,5.07,5.07
		s5.07-2.27,5.07-5.07c0-1.67-0.83-3.15-2.09-4.08l11.35-13.21c0.41,0.12,0.83,0.18,1.28,0.18c1.64,0,3.08-0.8,4.01-2.01l8.65,5.1
		c0.6,0.31,1.36,0.12,1.69-0.43l0.02-0.02C38.8,24.6,38.57,23.89,37.95,23.58z M8.51,41.82c-1.21,0-2.2-0.99-2.2-2.2
		s0.99-2.2,2.2-2.2s2.2,0.99,2.2,2.2S9.73,41.82,8.51,41.82z M24.13,19.65c-1.21,0-2.2-0.99-2.2-2.2s0.99-2.2,2.2-2.2
		c1.21,0,2.2,0.99,2.2,2.2C26.34,18.66,25.34,19.65,24.13,19.65z M57.95,1.45c-2.8,0-5.07,2.27-5.07,5.07
		c0,1.46,0.63,2.75,1.61,3.68l-12,12.71c-0.33,0.6-0.12,1.34,0.48,1.67c0.6,0.33,1.34,0.12,1.67-0.48l12-12.71
		c0.41,0.12,0.86,0.2,1.31,0.2c2.8,0,5.07-2.27,5.07-5.07C63.03,3.72,60.76,1.45,57.95,1.45z M57.95,8.73c-1.21,0-2.2-0.99-2.2-2.2
		s0.99-2.2,2.2-2.2c1.21,0,2.2,0.99,2.2,2.2S59.16,8.73,57.95,8.73z"/>
	<g>
		<path class="st2" d="M41.13,31.98c-2.8,0-5.07-2.27-5.07-5.07s2.27-5.07,5.07-5.07c2.8,0,5.07,2.27,5.07,5.07
			S43.94,31.98,41.13,31.98z M41.13,24.7c-1.21,0-2.2,0.99-2.2,2.2c0,1.21,0.99,2.2,2.2,2.2s2.2-0.99,2.2-2.2
			C43.34,25.7,42.34,24.7,41.13,24.7z"/>
	</g>
</g>
</svg>
