<?xml version="1.0" encoding="utf-8"?>
<!-- Generator: Adobe Illustrator 21.0.0, SVG Export Plug-In . SVG Version: 6.00 Build 0)  -->
<svg version="1.1" id="Ebene_2" xmlns="http://www.w3.org/2000/svg" xmlns:xlink="http://www.w3.org/1999/xlink" x="0px" y="0px"
	 viewBox="0 0 248.2 23" style="enable-background:new 0 0 248.2 23;" xml:space="preserve">
<style type="text/css">
	.st0{fill:#2D2D2D;}
	.st1{fill:#FFB200;}
	.st2{fill:#FFFFFF;}
</style>
<g>
	<path class="st0" d="M113.2,7.8h-2.4v4.9c0,1.4-0.8,2-1.8,2c-1,0-1.8-0.6-1.8-2V7.8h-2.4v5.1c0,2.8,2,4,4.2,4c2.2,0,4.2-1.2,4.2-4
		V7.8z M102.6,7.8h-7.5v2.1h4.3L95,15v1.7h7.7v-2.1h-4.5l4.4-5V7.8z M88.7,7.8h-3.2V5.2h-2.4v2.6h-1.7v2.1h1.7v3.4
		c0,2.3,1.1,3.5,3.3,3.5c1.3,0,2.2-0.4,2.9-0.9l-0.9-1.9c-0.5,0.3-1.1,0.6-1.7,0.6c-0.7,0-1.3-0.4-1.3-1.5V9.9h3.2V7.8z M80.2,8.4
		c-1.2-0.6-2.3-0.8-3.7-0.8c-2.3,0-3.7,1.1-3.7,2.9c0,1.5,1,2.4,3.1,2.7l0.7,0.1c1,0.1,1.5,0.4,1.5,0.8c0,0.5-0.5,0.8-1.6,0.8
		c-1.3,0-2.3-0.4-3-0.9l-0.9,1.8c1.2,0.8,2.7,1,3.9,1c2.6,0,4.1-1.2,4.1-3c0-1.5-1.1-2.4-3-2.7l-0.8-0.1c-0.8-0.1-1.4-0.2-1.4-0.8
		c0-0.5,0.5-0.8,1.4-0.8c1,0,2.1,0.4,2.8,0.7L80.2,8.4z M70.4,7.6c-1.1,0-1.9,0.4-2.5,1.2v-1h-2.3v8.9h2.4v-4.8c0-1.3,0.8-2,1.9-2
		c0.5,0,1.1,0.1,1.4,0.3l0.4-2.4C71.3,7.7,70.9,7.6,70.4,7.6 M59.3,9.6c1,0,1.7,0.6,1.9,1.8h-3.9C57.6,10.3,58.2,9.6,59.3,9.6
		 M59.4,7.6c-2.7,0-4.5,1.9-4.5,4.7s1.9,4.6,4.6,4.6c1.5,0,2.8-0.4,3.8-1.3L61.8,14c-0.6,0.5-1.5,0.9-2.2,0.9c-1.1,0-2-0.6-2.3-1.8
		h6.3c0-0.2,0-0.5,0-0.8C63.6,9.5,61.9,7.6,59.4,7.6 M44.2,9.8c1.3,0,2.4,1,2.4,2.4s-1,2.4-2.4,2.4c-1.3,0-2.3-1-2.3-2.4
		S42.8,9.8,44.2,9.8 M44.1,7.6c-2.8,0-4.8,2-4.8,4.7c0,2.7,2,4.7,4.8,4.7c2.8,0,4.8-2,4.8-4.7C48.9,9.6,46.8,7.6,44.1,7.6 M33.9,7.6
		c-1.2,0-2.3,0.4-3,1.5c-0.6-0.9-1.6-1.5-2.9-1.5c-1,0-2,0.3-2.6,1.3v-1h-2.3v8.9h2.4v-4.9c0-1.3,0.9-2,1.9-2c1.1,0,1.7,0.7,1.7,2
		v4.9h2.4v-4.9c0-1.3,0.8-2,1.9-2c1.1,0,1.7,0.7,1.7,2v4.9h2.4V11C37.4,9,36,7.6,33.9,7.6 M17.2,7.6c-1.2,0-2.3,0.4-3,1.5
		c-0.6-0.9-1.6-1.5-2.9-1.5c-1,0-2,0.3-2.6,1.3v-1H6.3v8.9h2.4v-4.9c0-1.3,0.8-2,1.9-2c1.1,0,1.7,0.7,1.7,2v4.9h2.4v-4.9
		c0-1.3,0.9-2,1.9-2c1.1,0,1.7,0.7,1.7,2v4.9h2.4V11C20.7,9,19.3,7.6,17.2,7.6 M2.7,3.4c-0.9,0-1.5,0.7-1.5,1.5s0.7,1.5,1.5,1.5
		s1.5-0.7,1.5-1.5S3.5,3.4,2.7,3.4 M3.9,7.8H1.5v8.9h2.4V7.8z"/>
</g>
<g>
	<path class="st0" d="M244.2,3.3C242,1.2,239,0,235.8,0v0H131.8v0c-3.3,0-6.3,1.2-8.5,3.3c-2.2,2.1-3.4,5-3.4,8.2
		c0,3.2,1.2,6.1,3.4,8.2c2.2,2.1,5.2,3.3,8.5,3.3c0,0,0,0,0,0h103.9c0,0,0,0,0,0c0,0,0,0,0,0h0v0c3.3,0,6.3-1.2,8.5-3.3
		c2.2-2.1,3.4-5,3.4-8.2C247.6,8.3,246.4,5.4,244.2,3.3z"/>
	<g>
		<path class="st1" d="M243.5,3.9c-2-1.9-4.8-3-7.8-3v0h0c0,0,0,0,0,0c0,0,0,0,0,0h-64.2v0c4.2,1.7,7,5.7,7,10.6
			c0,4.9-2.8,8.9-7,10.6h64.1c0,0,0,0,0,0c0,0,0,0,0,0h0v0c3,0,5.8-1.1,7.8-3c2-1.9,3.1-4.6,3.1-7.6C246.6,8.6,245.5,5.9,243.5,3.9z
			"/>
	</g>
	<g id="welt.de">
		<path class="st0" d="M190.3,14l1.9-6.2h2.5l-3,8.9H189l-2-6l-1.9,6h-2.7l-3-8.9h2.5l1.9,6.2l2-6.2h2.5L190.3,14z"/>
		<path class="st0" d="M203.8,12.2c0,0.3,0,0.6,0,0.8h-6.3c0.3,1.3,1.2,1.8,2.3,1.8c0.8,0,1.6-0.3,2.2-0.9l1.4,1.5
			c-1,0.9-2.3,1.3-3.8,1.3c-2.7,0-4.6-1.8-4.6-4.6c0-2.8,1.8-4.7,4.5-4.7C202,7.6,203.7,9.5,203.8,12.2z M197.4,11.4h3.9
			c-0.2-1.1-0.9-1.8-1.9-1.8C198.3,9.6,197.6,10.3,197.4,11.4z"/>
		<path class="st0" d="M207.4,16.7H205V4.5h2.4V16.7z"/>
		<path class="st0" d="M215.8,9.9h-3.2v3.2c0,1.1,0.6,1.5,1.3,1.5c0.6,0,1.2-0.3,1.7-0.6l0.9,1.9c-0.8,0.5-1.7,0.9-2.9,0.9
			c-2.2,0-3.3-1.2-3.3-3.5V9.9h-1.7V7.8h1.7V5.2h2.4v2.6h3.2V9.9z"/>
		<path class="st0" d="M228.3,8.7V4.5h2.4v12.2h-2.3v-1c-0.6,0.7-1.4,1.2-2.7,1.2c-2.4,0-4.3-2-4.3-4.7c0-2.7,1.8-4.7,4.3-4.7
			C226.9,7.6,227.8,8.1,228.3,8.7z M223.9,12.2c0,1.4,0.9,2.4,2.3,2.4c1.4,0,2.3-1,2.3-2.4s-0.9-2.4-2.3-2.4
			C224.8,9.8,223.9,10.9,223.9,12.2z"/>
		<path class="st0" d="M241.1,12.2c0,0.3,0,0.6,0,0.8h-6.3c0.3,1.3,1.2,1.8,2.3,1.8c0.8,0,1.6-0.3,2.2-0.9l1.4,1.5
			c-1,0.9-2.3,1.3-3.8,1.3c-2.7,0-4.6-1.8-4.6-4.6c0-2.8,1.8-4.7,4.5-4.7C239.4,7.6,241.1,9.5,241.1,12.2z M234.8,11.4h3.9
			c-0.2-1.1-0.9-1.8-1.9-1.8C235.7,9.6,235,10.3,234.8,11.4z"/>
		<path class="st0" d="M220.8,15.3c0.1,0.9-0.7,1.7-1.6,1.6c-0.8,0-1.4-0.7-1.4-1.4c-0.1-0.9,0.7-1.7,1.6-1.6
			C220.1,13.9,220.8,14.5,220.8,15.3z"/>
	</g>
	<g id="immo">
		<path class="st2" d="M131.6,4.9c0,0.9-0.7,1.5-1.5,1.5c-0.9,0-1.5-0.7-1.5-1.5c0-0.9,0.7-1.5,1.5-1.5C131,3.4,131.6,4.1,131.6,4.9
			z M131.3,16.7h-2.4V7.8h2.4V16.7z"/>
		<path class="st2" d="M148.1,11v5.6h-2.4v-4.9c0-1.3-0.6-2-1.7-2c-1,0-1.9,0.7-1.9,2v4.9h-2.4v-4.9c0-1.3-0.6-2-1.7-2
			c-1,0-1.9,0.7-1.9,2v4.9h-2.4V7.8h2.3v1c0.6-0.9,1.6-1.3,2.6-1.3c1.3,0,2.3,0.6,2.9,1.5c0.7-1.1,1.8-1.5,3-1.5
			C146.7,7.6,148.1,9,148.1,11z"/>
		<path class="st2" d="M164.9,11v5.6h-2.4v-4.9c0-1.3-0.6-2-1.7-2c-1,0-1.9,0.7-1.9,2v4.9h-2.4v-4.9c0-1.3-0.6-2-1.7-2
			c-1,0-1.9,0.7-1.9,2v4.9h-2.4V7.8h2.3v1c0.6-0.9,1.6-1.3,2.6-1.3c1.3,0,2.3,0.6,2.9,1.5c0.7-1.1,1.8-1.5,3-1.5
			C163.5,7.6,164.9,9,164.9,11z"/>
		<path class="st2" d="M176.3,12.2c0,2.7-2,4.7-4.8,4.7c-2.8,0-4.8-2-4.8-4.7c0-2.7,2-4.7,4.8-4.7C174.3,7.6,176.3,9.6,176.3,12.2z
			 M169.2,12.2c0,1.4,1,2.4,2.3,2.4c1.3,0,2.4-1,2.4-2.4c0-1.4-1-2.4-2.4-2.4C170.2,9.8,169.2,10.8,169.2,12.2z"/>
	</g>
</g>
</svg>
