<?xml version="1.0" encoding="utf-8"?>
<!-- Generator: Adobe Illustrator 21.0.0, SVG Export Plug-In . SVG Version: 6.00 Build 0)  -->
<svg version="1.1" id="Ebene_2" xmlns="http://www.w3.org/2000/svg" xmlns:xlink="http://www.w3.org/1999/xlink" x="0px" y="0px"
	 viewBox="0 0 130.3 23" style="enable-background:new 0 0 130.3 23;" xml:space="preserve">
<style type="text/css">
	.st0{fill:#2D2D2D;}
	.st1{fill:#FFB200;}
	.st2{fill:#FFFFFF;}
</style>
<g>
	<path class="st0" d="M125.4,3.3C123.3,1.2,120.2,0,117,0v0H13v0C9.8,0,6.8,1.2,4.6,3.3c-2.2,2.1-3.4,5-3.4,8.2
		c0,3.2,1.2,6.1,3.4,8.2C6.8,21.9,9.8,23,13,23c0,0,0,0,0,0h103.9c0,0,0,0,0,0c0,0,0,0,0,0h0v0c3.3,0,6.3-1.2,8.5-3.3
		c2.2-2.1,3.4-5,3.4-8.2C128.8,8.3,127.6,5.4,125.4,3.3z"/>
	<g>
		<path class="st1" d="M124.7,3.9c-2-1.9-4.8-3-7.8-3v0h0c0,0,0,0,0,0c0,0,0,0,0,0H52.7v0c4.2,1.7,7,5.7,7,10.6
			c0,4.9-2.8,8.9-7,10.6h64.1c0,0,0,0,0,0c0,0,0,0,0,0h0v0c3,0,5.8-1.1,7.8-3c2-1.9,3.1-4.6,3.1-7.6C127.8,8.6,126.7,5.9,124.7,3.9z
			"/>
	</g>
	<g id="welt.de">
		<path class="st0" d="M71.5,14l1.9-6.2h2.5l-3,8.9h-2.7l-2-6l-1.9,6h-2.7l-3-8.9h2.5L65,14l2-6.2h2.5L71.5,14z"/>
		<path class="st0" d="M85,12.2c0,0.3,0,0.6,0,0.8h-6.3c0.3,1.3,1.2,1.8,2.3,1.8c0.8,0,1.6-0.3,2.2-0.9l1.4,1.5
			c-1,0.9-2.3,1.3-3.8,1.3c-2.7,0-4.6-1.8-4.6-4.6c0-2.8,1.8-4.7,4.5-4.7C83.2,7.6,85,9.5,85,12.2z M78.6,11.4h3.9
			c-0.2-1.1-0.9-1.8-1.9-1.8C79.5,9.6,78.9,10.3,78.6,11.4z"/>
		<path class="st0" d="M88.6,16.7h-2.4V4.5h2.4V16.7z"/>
		<path class="st0" d="M97,9.9h-3.2v3.2c0,1.1,0.6,1.5,1.3,1.5c0.6,0,1.2-0.3,1.7-0.6l0.9,1.9c-0.8,0.5-1.7,0.9-2.9,0.9
			c-2.2,0-3.3-1.2-3.3-3.5V9.9h-1.7V7.8h1.7V5.2h2.4v2.6H97V9.9z"/>
		<path class="st0" d="M109.5,8.7V4.5h2.4v12.2h-2.3v-1c-0.6,0.7-1.4,1.2-2.7,1.2c-2.4,0-4.3-2-4.3-4.7c0-2.7,1.8-4.7,4.3-4.7
			C108.1,7.6,109,8.1,109.5,8.7z M105.1,12.2c0,1.4,0.9,2.4,2.3,2.4c1.4,0,2.3-1,2.3-2.4s-0.9-2.4-2.3-2.4
			C106,9.8,105.1,10.9,105.1,12.2z"/>
		<path class="st0" d="M122.3,12.2c0,0.3,0,0.6,0,0.8H116c0.3,1.3,1.2,1.8,2.3,1.8c0.8,0,1.6-0.3,2.2-0.9l1.4,1.5
			c-1,0.9-2.3,1.3-3.8,1.3c-2.7,0-4.6-1.8-4.6-4.6c0-2.8,1.8-4.7,4.5-4.7C120.6,7.6,122.3,9.5,122.3,12.2z M116,11.4h3.9
			c-0.2-1.1-0.9-1.8-1.9-1.8C116.9,9.6,116.2,10.3,116,11.4z"/>
		<path class="st0" d="M102,15.3c0.1,0.9-0.7,1.7-1.6,1.6c-0.8,0-1.4-0.7-1.4-1.4c-0.1-0.9,0.7-1.7,1.6-1.6
			C101.3,13.9,102,14.5,102,15.3z"/>
	</g>
	<g id="immo">
		<path class="st2" d="M12.8,4.9c0,0.9-0.7,1.5-1.5,1.5c-0.9,0-1.5-0.7-1.5-1.5c0-0.9,0.7-1.5,1.5-1.5C12.2,3.4,12.8,4.1,12.8,4.9z
			 M12.5,16.7h-2.4V7.8h2.4V16.7z"/>
		<path class="st2" d="M29.3,11v5.6H27v-4.9c0-1.3-0.6-2-1.7-2c-1,0-1.9,0.7-1.9,2v4.9H21v-4.9c0-1.3-0.6-2-1.7-2
			c-1,0-1.9,0.7-1.9,2v4.9H15V7.8h2.3v1c0.6-0.9,1.6-1.3,2.6-1.3c1.3,0,2.3,0.6,2.9,1.5c0.7-1.1,1.8-1.5,3-1.5
			C27.9,7.6,29.3,9,29.3,11z"/>
		<path class="st2" d="M46.1,11v5.6h-2.4v-4.9c0-1.3-0.6-2-1.7-2c-1,0-1.9,0.7-1.9,2v4.9h-2.4v-4.9c0-1.3-0.6-2-1.7-2
			c-1,0-1.9,0.7-1.9,2v4.9h-2.4V7.8h2.3v1c0.6-0.9,1.6-1.3,2.6-1.3c1.3,0,2.3,0.6,2.9,1.5c0.7-1.1,1.8-1.5,3-1.5
			C44.7,7.6,46.1,9,46.1,11z"/>
		<path class="st2" d="M57.5,12.2c0,2.7-2,4.7-4.8,4.7c-2.8,0-4.8-2-4.8-4.7c0-2.7,2-4.7,4.8-4.7C55.5,7.6,57.5,9.6,57.5,12.2z
			 M50.4,12.2c0,1.4,1,2.4,2.3,2.4c1.3,0,2.4-1,2.4-2.4c0-1.4-1-2.4-2.4-2.4C51.4,9.8,50.4,10.8,50.4,12.2z"/>
	</g>
</g>
</svg>
