<?xml version="1.0" encoding="utf-8"?>
<!-- Generator: Adobe Illustrator 22.0.1, SVG Export Plug-In . SVG Version: 6.00 Build 0)  -->
<svg version="1.1" id="Ebene_2_1_" xmlns="http://www.w3.org/2000/svg" xmlns:xlink="http://www.w3.org/1999/xlink" x="0px" y="0px"
	 viewBox="0 0 357 37.7" style="enable-background:new 0 0 357 37.7;" xml:space="preserve">
<style type="text/css">
	.st0{fill:#FFFFFF;}
	.st1{fill:#2D2D2D;}
	.st2{fill:#FFB200;}
</style>
<title>Zeichenfläche 1 Kopie</title>
<path class="st0" d="M161.7,14h-3.4v7c0,2-1.1,2.9-2.6,2.9c-1.5,0-2.6-0.8-2.6-2.9v-7h-3.4v7.3c0,4,2.8,5.8,6.1,5.8
	c3.2,0,6-1.7,6-5.8V14z M146.5,14h-10.8V17h6.2l-6.5,7.2v2.5h11.2v-3.1h-6.5l6.3-7.2L146.5,14z M126.4,14h-4.6v-3.8h-3.4V14h-2.5V17
	h2.5V22c0,3.3,1.6,5.1,4.8,5.1c1.5,0,3-0.5,4.2-1.3l-1.3-2.7c-0.7,0.5-1.5,0.8-2.4,0.8c-1.1,0-1.9-0.6-1.9-2.2V17h4.6V14z
	 M114.1,14.8c-1.7-0.8-3.5-1.2-5.3-1.2c-3.4,0-5.5,1.6-5.5,4.2c0,2.2,1.5,3.5,4.4,3.9l1.1,0.1c1.5,0.2,2.1,0.6,2.1,1.2
	s-0.8,1.2-2.4,1.2c-1.5,0-3.1-0.4-4.4-1.3l-1.3,2.6c1.7,1.1,3.7,1.6,5.7,1.5c3.7,0,5.9-1.7,5.9-4.4c0-2.2-1.5-3.4-4.4-3.8l-1.1-0.2
	c-1.2-0.2-2.1-0.4-2.1-1.1s0.7-1.2,2-1.2c1.4,0.1,2.8,0.4,4.1,1.1L114.1,14.8z M99.9,13.6c-1.4-0.1-2.8,0.6-3.6,1.7V14H93v12.8h3.4
	v-7c-0.2-1.4,0.8-2.7,2.2-2.9c0.2,0,0.3,0,0.5,0c0.7,0,1.4,0.1,2.1,0.4l0.5-3.4C101.2,13.7,100.5,13.6,99.9,13.6 M84,16.6
	c1.5,0,2.7,1.1,2.8,2.6h-5.6C81.3,17.7,82.5,16.6,84,16.6 M84,13.6c-3.8,0-6.5,2.7-6.5,6.8c-0.2,3.5,2.4,6.5,5.9,6.7
	c0.2,0,0.5,0,0.7,0c2,0.1,4-0.6,5.5-1.9l-2-2.2c-0.9,0.8-2.1,1.2-3.3,1.2c-1.6,0.1-3-1-3.3-2.6h9.1c0-0.4,0.1-0.8,0.1-1.2
	C90.2,16.4,87.7,13.7,84,13.6 M62.1,16.8c1.9,0,3.4,1.5,3.4,3.3c0,0.1,0,0.1,0,0.2c0.1,1.9-1.3,3.5-3.2,3.6
	c-1.9,0.1-3.5-1.3-3.6-3.2c0-0.1,0-0.3,0-0.4c-0.1-1.8,1.3-3.4,3.2-3.5C62,16.8,62,16.8,62.1,16.8 M62.1,13.6
	c-3.7,0.1-6.6,3.2-6.5,6.9c0.1,3.7,3.2,6.6,6.9,6.5C66.1,27,69,24,69,20.3c0.1-3.7-2.9-6.7-6.5-6.7C62.4,13.6,62.2,13.6,62.1,13.6
	 M47.4,13.6c-1.7-0.1-3.4,0.7-4.4,2.2c-0.9-1.4-2.5-2.2-4.2-2.2c-1.5-0.1-2.9,0.6-3.8,1.8V14h-3.3v12.8h3.4v-7
	c-0.2-1.4,0.9-2.7,2.3-2.9c0.1,0,0.3,0,0.4,0c1.6,0,2.5,1,2.5,2.9v7h3.4v-7c-0.2-1.4,0.8-2.7,2.3-2.9c0.1,0,0.3,0,0.4,0
	c1.6,0,2.5,1,2.5,2.9v7h3.4v-8.1c0.1-2.6-1.9-4.9-4.5-5C47.8,13.6,47.6,13.6,47.4,13.6 M23.2,13.6c-1.7-0.1-3.4,0.7-4.4,2.2
	c-0.9-1.4-2.5-2.2-4.2-2.2c-1.5-0.1-2.9,0.6-3.8,1.8V14H7.5v12.8H11v-7c-0.2-1.4,0.8-2.7,2.3-2.9c0.1,0,0.3,0,0.4,0
	c1.6,0,2.5,1,2.5,2.9v7h3.4v-7c-0.2-1.4,0.9-2.7,2.3-2.9c0.1,0,0.3,0,0.4,0c1.6,0,2.5,1,2.5,2.9v7h3.4v-8.1c0.1-2.6-1.9-4.9-4.5-5
	C23.6,13.6,23.4,13.6,23.2,13.6 M2.2,7.6C1,7.6,0,8.5,0,9.7s1,2.2,2.2,2.2s2.2-1,2.2-2.2S3.4,7.6,2.2,7.6 M3.9,14H0.5v12.8H4L3.9,14
	z"/>
<path class="st1" d="M351.6,7.7c-3.3-3.1-7.7-4.7-12.2-4.7H189.2c-4.5-0.1-8.9,1.6-12.2,4.7c-3.2,3.1-4.9,7.3-4.9,11.7
	c-0.1,4.4,1.7,8.6,4.9,11.7c3.3,3.1,7.7,4.8,12.2,4.7h150.2c4.5,0.1,8.9-1.6,12.2-4.7c3.2-3.1,4.9-7.3,4.9-11.7
	C356.5,15,354.8,10.7,351.6,7.7"/>
<path class="st2" d="M351.1,8.4C348,5.5,344,4,339.8,4h-93.3c6.3,2.5,10.3,8.6,10.2,15.4c0.1,6.7-3.9,12.9-10.1,15.4h93.3
	c4.2,0.1,8.2-1.5,11.3-4.4c2.9-2.9,4.6-6.9,4.5-11C355.7,15.3,354,11.3,351.1,8.4"/>
<path class="st0" d="M188.1,26.9h-3.5V14h3.5V26.9z M188.6,9.8c0,1.2-1,2.2-2.2,2.2s-2.2-1-2.2-2.2s1-2.2,2.2-2.2
	S188.6,8.6,188.6,9.8"/>
<path class="st0" d="M212.5,18.7v8.2h-3.5v-7.1c0-1.9-0.9-2.9-2.5-2.9c-1.5-0.1-2.7,1.1-2.7,2.5c0,0.1,0,0.3,0,0.4v7.1h-3.5v-7.1
	c0-1.9-0.9-2.9-2.5-2.9c-1.5-0.1-2.7,1.1-2.7,2.5c0,0.1,0,0.3,0,0.4v7.1h-3.5V14h3.4v1.5c0.9-1.2,2.3-1.9,3.8-1.9
	c1.7-0.1,3.3,0.8,4.3,2.2c1-1.5,2.6-2.3,4.4-2.2c2.6-0.2,4.9,1.8,5.1,4.5C212.5,18.3,212.5,18.5,212.5,18.7"/>
<path class="st0" d="M236.9,18.7v8.2h-3.5v-7.1c0-1.9-0.9-2.9-2.5-2.9c-1.5-0.1-2.7,1.1-2.7,2.5c0,0.1,0,0.3,0,0.4v7.1h-3.5v-7.1
	c0-1.9-0.9-2.9-2.5-2.9c-1.5-0.1-2.7,1.1-2.7,2.5c0,0.1,0,0.3,0,0.4v7.1H216V14h3.4v1.5c0.9-1.2,2.3-1.9,3.8-1.9
	c1.7-0.1,3.3,0.8,4.3,2.2c1-1.5,2.6-2.3,4.4-2.2c2.6-0.2,4.9,1.8,5.1,4.5C236.9,18.3,236.9,18.5,236.9,18.7"/>
<path class="st0" d="M243.1,20.4c-0.1,1.9,1.3,3.5,3.2,3.6c1.9,0.1,3.5-1.3,3.6-3.2c0-0.1,0-0.3,0-0.4c0.1-1.9-1.3-3.5-3.2-3.6
	s-3.5,1.3-3.6,3.2C243.1,20.2,243.1,20.3,243.1,20.4 M253.5,20.4c0.1,3.8-2.9,7-6.8,7.1c-3.8,0.1-7-2.9-7.1-6.8
	c-0.1-3.8,2.9-7,6.8-7.1c0.1,0,0.1,0,0.2,0c3.7-0.2,6.8,2.7,7,6.4C253.5,20.2,253.5,20.3,253.5,20.4"/>
<polygon class="st1" points="273.8,23.1 276.5,14 280.2,14 275.8,26.9 271.9,26.9 269,18.2 266.2,26.9 262.2,26.9 257.9,14 
	261.6,14 264.3,23 267.2,14 270.9,14 "/>
<path class="st1" d="M284.2,19.2h5.7c-0.2-1.6-1.6-2.7-3.2-2.5C285.3,16.9,284.3,17.9,284.2,19.2 M293.3,20.4c0,0.4,0,0.8-0.1,1.2
	h-9.1c0.2,1.6,1.6,2.8,3.3,2.7c1.2,0,2.4-0.5,3.3-1.2l2,2.2c-1.5,1.3-3.5,2-5.5,2c-3.5,0.2-6.5-2.5-6.7-6c0-0.2,0-0.5,0-0.7
	c0-4,2.7-6.8,6.5-6.8S293.4,16.4,293.3,20.4"/>
<rect x="295.1" y="9.2" class="st1" width="3.5" height="17.7"/>
<path class="st1" d="M310.8,17.1h-4.7v4.7c0,1.6,0.9,2.2,1.9,2.2c0.9-0.1,1.7-0.4,2.4-0.8l1.3,2.7c-1.2,0.9-2.7,1.4-4.3,1.4
	c-3.2,0-4.8-1.8-4.8-5.1v-5h-2.5V14h2.5v-3.8h3.5V14h4.7L310.8,17.1z"/>
<path class="st1" d="M322.6,20.5c-0.1,1.8,1.3,3.4,3.1,3.5c1.8,0.1,3.4-1.3,3.5-3.1c0-0.1,0-0.3,0-0.4c0.1-1.8-1.3-3.4-3.1-3.5
	s-3.4,1.3-3.5,3.1C322.6,20.2,322.6,20.3,322.6,20.5 M329,15.4V9.2h3.5v17.7h-3.4v-1.4c-0.9,1.2-2.4,1.8-3.8,1.8
	c-3.5,0-6.2-2.9-6.2-6.8s2.7-6.8,6.2-6.8C326.7,13.6,328.1,14.3,329,15.4"/>
<path class="st1" d="M338.5,19.2h5.7c-0.2-1.6-1.6-2.7-3.2-2.5C339.6,16.9,338.6,17.9,338.5,19.2 M347.6,20.4c0,0.4,0,0.8-0.1,1.2
	h-9.1c0.2,1.6,1.6,2.8,3.3,2.7c1.2,0,2.4-0.5,3.3-1.2l2,2.2c-1.5,1.3-3.5,2-5.5,2c-3.5,0.2-6.5-2.5-6.7-6c0-0.2,0-0.5,0-0.7
	c0-4,2.7-6.8,6.5-6.8S347.7,16.4,347.6,20.4"/>
<path class="st1" d="M318.1,24.9c0.1,1.2-0.8,2.2-2,2.3c-0.1,0-0.2,0-0.3,0c-1.1-0.1-2-0.9-2.1-2c-0.1-1.2,0.8-2.3,2-2.4
	c0.1,0,0.2,0,0.4,0C317.1,22.9,318,23.8,318.1,24.9"/>
<path class="st0" d="M355.6,19.4c0.1,4.1-1.6,8.1-4.5,11c-3,2.9-7.1,4.4-11.2,4.4H189.2c-4.2,0.1-8.2-1.5-11.2-4.4
	c-2.9-2.9-4.5-6.9-4.5-11c-0.1-4.1,1.6-8.1,4.5-11c3-2.9,7.1-4.4,11.2-4.4h150.8c4.2-0.1,8.2,1.5,11.2,4.4
	C354.1,11.3,355.7,15.3,355.6,19.4 M357,19.4c0.1-4.5-1.7-8.8-4.9-12c-3.3-3.1-7.7-4.8-12.3-4.8H188.8c-4.5-0.1-8.9,1.6-12.2,4.8
	c-3.2,3.2-4.9,7.5-4.9,12c-0.1,4.5,1.7,8.8,4.9,12c3.3,3.1,7.7,4.9,12.2,4.8h151.1c4.5,0.1,8.9-1.6,12.2-4.8
	C355.4,28.2,357.1,23.9,357,19.4"/>
</svg>
