<?xml version="1.0" encoding="utf-8"?>
<!-- Generator: Adobe Illustrator 22.0.1, SVG Export Plug-In . SVG Version: 6.00 Build 0)  -->
<svg version="1.1" id="Ebene_1" xmlns="http://www.w3.org/2000/svg" xmlns:xlink="http://www.w3.org/1999/xlink" x="0px" y="0px"
	 viewBox="0 0 186.3 36" style="enable-background:new 0 0 186.3 36;" xml:space="preserve">
<style type="text/css">
	.st0{fill:#2E2E2E;}
	.st1{fill:#F9B116;}
	.st2{fill:#FFFFFF;}
</style>
<path class="st0" d="M180.4,6.2c-3.3-3.1-7.7-4.7-12.2-4.7H18C13.4,1.4,9.1,3.1,5.7,6.2c-3.2,3.1-4.9,7.3-4.9,11.7
	c-0.1,4.4,1.7,8.6,4.9,11.7c3.3,3.1,7.7,4.8,12.2,4.7h150.2c4.5,0.1,8.9-1.6,12.2-4.7c3.2-3.1,4.9-7.3,4.9-11.7
	C185.3,13.5,183.5,9.2,180.4,6.2"/>
<path class="st1" d="M179.8,6.9c-3-2.9-7.1-4.4-11.3-4.4H75.3c6.3,2.5,10.3,8.6,10.2,15.4c0.1,6.7-3.9,12.9-10.1,15.4h93.3
	c4.2,0.1,8.2-1.5,11.3-4.4c2.9-2.9,4.6-6.9,4.5-11C184.4,13.8,182.8,9.8,179.8,6.9"/>
<path class="st2" d="M16.9,25.4h-3.5V12.5h3.5V25.4z M17.4,8.3c0,1.2-1,2.2-2.2,2.2S13,9.5,13,8.3s1-2.2,2.2-2.2S17.4,7.1,17.4,8.3"
	/>
<path class="st2" d="M41.3,17.2v8.2h-3.5v-7.1c0-1.9-0.9-2.9-2.5-2.9c-1.5-0.1-2.7,1.1-2.7,2.5c0,0.1,0,0.3,0,0.4v7.1h-3.5v-7.1
	c0-1.9-0.9-2.9-2.5-2.9c-1.5-0.1-2.7,1.1-2.7,2.5c0,0.1,0,0.3,0,0.4v7.1h-3.5V12.5h3.4V14c0.9-1.2,2.3-1.9,3.8-1.9
	c1.7-0.1,3.3,0.8,4.3,2.2c1-1.5,2.6-2.3,4.4-2.2c2.6-0.2,4.9,1.8,5.1,4.5C41.3,16.8,41.3,17,41.3,17.2"/>
<path class="st2" d="M65.7,17.2v8.2h-3.5v-7.1c0-1.9-0.9-2.9-2.5-2.9c-1.5-0.1-2.7,1.1-2.7,2.5c0,0.1,0,0.3,0,0.4v7.1h-3.5v-7.1
	c0-1.9-0.9-2.9-2.5-2.9c-1.5-0.1-2.7,1.1-2.7,2.5c0,0.1,0,0.3,0,0.4v7.1h-3.5V12.5h3.4V14c0.9-1.2,2.3-1.9,3.8-1.9
	c1.7-0.1,3.3,0.8,4.3,2.2c1-1.5,2.6-2.3,4.4-2.2c2.6-0.2,4.9,1.8,5.1,4.5C65.6,16.8,65.6,17,65.7,17.2"/>
<path class="st2" d="M71.9,18.9c-0.1,1.9,1.3,3.5,3.2,3.6c1.9,0.1,3.5-1.3,3.6-3.2c0-0.1,0-0.3,0-0.4c0.1-1.9-1.3-3.5-3.2-3.6
	c-1.9-0.1-3.5,1.3-3.6,3.2C71.9,18.7,71.9,18.8,71.9,18.9 M82.3,18.9c0.1,3.8-2.9,7-6.8,7.1c-3.8,0.1-7-2.9-7.1-6.8
	c-0.1-3.8,2.9-7,6.8-7.1c0.1,0,0.1,0,0.2,0c3.7-0.2,6.8,2.7,7,6.4C82.3,18.7,82.3,18.8,82.3,18.9"/>
<polygon class="st0" points="102.6,21.5 105.3,12.5 109,12.5 104.6,25.4 100.6,25.4 97.8,16.7 95,25.4 91,25.4 86.7,12.5 90.4,12.5 
	93.1,21.5 96,12.5 99.6,12.5 "/>
<path class="st0" d="M112.9,17.7h5.7c-0.2-1.6-1.6-2.7-3.2-2.5C114.1,15.4,113.1,16.4,112.9,17.7 M122.1,18.9c0,0.4,0,0.8-0.1,1.2
	h-9.1c0.2,1.6,1.6,2.8,3.3,2.7c1.2,0,2.4-0.5,3.3-1.2l2,2.2c-1.5,1.3-3.5,2-5.5,2c-3.5,0.2-6.5-2.5-6.7-6c0-0.2,0-0.5,0-0.7
	c0-4,2.7-6.8,6.5-6.8C119.8,12.1,122.2,14.9,122.1,18.9"/>
<rect x="123.9" y="7.7" class="st0" width="3.5" height="17.7"/>
<path class="st0" d="M139.6,15.6H135v4.7c0,1.6,0.9,2.2,1.9,2.2c0.9-0.1,1.7-0.4,2.4-0.8l1.3,2.7c-1.2,0.9-2.7,1.4-4.3,1.4
	c-3.2,0-4.8-1.8-4.8-5.1v-5H129v-3.1h2.5V8.7h3.5v3.8h4.7L139.6,15.6z"/>
<path class="st0" d="M151.4,19c-0.1,1.8,1.3,3.4,3.1,3.5c1.8,0.1,3.4-1.3,3.5-3.1c0-0.1,0-0.3,0-0.4c0.1-1.8-1.3-3.4-3.1-3.5
	s-3.4,1.3-3.5,3.1C151.4,18.7,151.4,18.8,151.4,19 M157.8,13.9V7.7h3.5v17.7h-3.4V24c-0.9,1.2-2.4,1.8-3.8,1.8
	c-3.5,0-6.2-2.9-6.2-6.8s2.7-6.8,6.2-6.8C155.5,12.1,156.9,12.8,157.8,13.9"/>
<path class="st0" d="M167.2,17.7h5.7c-0.2-1.6-1.6-2.7-3.2-2.5C168.4,15.4,167.4,16.4,167.2,17.7 M176.4,18.9c0,0.4,0,0.8-0.1,1.2
	h-9.1c0.2,1.6,1.6,2.8,3.3,2.7c1.2,0,2.4-0.5,3.3-1.2l2,2.2c-1.5,1.3-3.5,2-5.5,2c-3.5,0.2-6.5-2.5-6.7-6c0-0.2,0-0.5,0-0.7
	c0-4,2.7-6.8,6.5-6.8S176.5,14.9,176.4,18.9"/>
<path class="st0" d="M146.9,23.4c0.1,1.2-0.8,2.2-2,2.3c-0.1,0-0.2,0-0.3,0c-1.1-0.1-2-0.9-2.1-2c-0.1-1.2,0.8-2.3,2-2.4
	c0.1,0,0.2,0,0.4,0C145.9,21.4,146.8,22.2,146.9,23.4"/>
<path class="st2" d="M184.4,17.9c0.1,4.1-1.6,8.1-4.5,11c-3,2.9-7.1,4.4-11.2,4.4H18c-4.2,0.1-8.2-1.5-11.2-4.4
	C3.8,26,2.2,22,2.3,17.9c-0.1-4.1,1.6-8.1,4.5-11C9.8,4,13.8,2.5,18,2.5h150.8c4.2-0.1,8.2,1.5,11.2,4.4
	C182.9,9.8,184.5,13.8,184.4,17.9 M185.8,17.9c0.1-4.5-1.7-8.8-4.9-12c-3.3-3.1-7.7-4.8-12.3-4.8H17.6C13,1.1,8.6,2.8,5.4,5.9
	c-3.2,3.2-4.9,7.5-4.9,12c-0.1,4.5,1.7,8.8,4.9,12c3.3,3.1,7.7,4.9,12.2,4.8h151.1c4.5,0.1,8.9-1.6,12.2-4.8
	C184.1,26.7,185.9,22.4,185.8,17.9"/>
</svg>
